# xmcd
#
# Track frame offsets: 
#        150
#        24908
#        45773
#        62317
#        82496
#        101727
#        117461
#        133878
#        150651
#        165783
#        182678
#        203024
#        224162
#        241750
#        261007
#        278544
#        281137
#
# Disc length: 3960 seconds
#
# Revision: 0
# Processed by: cddbd v1.5.2PL0 Copyright (c) Steve Scherf et al.
# Submitted via: ExactAudioCopy v0.99pb5
#
DISCID=e90f7611
DTITLE=Lianne La Havas - Blood
DYEAR=2016
DGENRE=Soul
TTITLE0=Unstoppable
TTITLE1=Green and Gold
TTITLE2=What You Don't Do
TTITLE3=Tokyo
TTITLE4=Wonderful
TTITLE5=Midnight
TTITLE6=Grow
TTITLE7=Ghost
TTITLE8=Never Get Enough
TTITLE9=Good Goodbye
TTITLE10=Unstoppable (Solo)
TTITLE11=Fairytale (Solo)
TTITLE12=Green and Gold (Solo)
TTITLE13=Wonderful (Solo)
TTITLE14=Grow (Solo)
TTITLE15=Green and Gold (Interlude) (Solo)
TTITLE16=Midnight (solo)
EXTD=
EXTT0=
EXTT1=
EXTT2=
EXTT3=
EXTT4=
EXTT5=
EXTT6=
EXTT7=
EXTT8=
EXTT9=
EXTT10=
EXTT11=
EXTT12=
EXTT13=
EXTT14=
EXTT15=
EXTT16=
PLAYORDER=
